<svg xmlns="http://www.w3.org/2000/svg" width="48" height="49">
    <path fill="#6AD0F1" fill-rule="evenodd" d="M47.257 11.821l-23.91 23.628a2.003 2.003 0 0 1-1.018.539l-9.962 1.969a2.002 2.002 0 0 1-1.8-.538 1.954 1.954 0 0 1-.545-1.779l1.993-9.845c.076-.381.266-.731.545-1.006L36.47 1.16a2.008 2.008 0 0 1 2.817 0l7.97 7.877a1.95 1.95 0 0 1 0 2.784zm-9.379-6.484L15.804 27.152l-1.288 6.365 6.44-1.273 22.075-21.816-5.153-5.091zm-15.94 3.735H7.652c-2.011 0-3.646 1.004-3.646 2.991v28.236c0 1.986 1.635 4.216 3.646 4.216h28.572c2.011 0 3.647-2.23 3.647-4.216V26.181a1.98 1.98 0 0 1 1.992-1.969 1.98 1.98 0 0 1 1.993 1.969v14.118c0 4.159-3.424 8.154-7.632 8.154H7.652c-4.208 0-7.631-3.995-7.631-8.154V12.063c0-4.159 3.423-6.93 7.631-6.93h14.286a1.98 1.98 0 0 1 1.993 1.969 1.98 1.98 0 0 1-1.993 1.97z"/>
</svg>
