<svg xmlns="http://www.w3.org/2000/svg" width="58" height="38">
    <path fill="#6AD0F1" fill-rule="evenodd" d="M56.74 20.161c-.41.717-10.241 17.559-27.787 17.559S1.576 20.878 1.167 20.161a2.336 2.336 0 0 1 0-2.322C1.576 17.121 11.407.28 28.953.28S56.33 17.121 56.74 17.839a2.34 2.34 0 0 1 0 2.322zM28.953 4.96c-12.399 0-20.561 10.48-22.976 14.038C8.401 22.551 16.6 33.04 28.953 33.04c12.399 0 20.562-10.48 22.976-14.038C49.506 15.449 41.306 4.96 28.953 4.96zm0 23.4c-5.165 0-9.365-4.198-9.365-9.36 0-5.162 4.2-9.36 9.365-9.36s9.365 4.198 9.365 9.36c0 5.162-4.2 9.36-9.365 9.36zm0-14.04A4.688 4.688 0 0 0 24.27 19c0 2.58 2.102 4.68 4.683 4.68 2.582 0 4.683-2.1 4.683-4.68 0-2.58-2.101-4.68-4.683-4.68z"/>
</svg>
