<svg xmlns="http://www.w3.org/2000/svg" width="44" height="44">
    <path fill="#6AD0F1" fill-rule="evenodd" d="M36.667 14.667c-2.201 0-4.155-.994-5.5-2.534L14.5 20.467c.106.495.167 1.006.167 1.533a7.31 7.31 0 0 1-.167 1.533l16.667 8.334c1.345-1.54 3.299-2.534 5.5-2.534 4.043 0 7.333 3.289 7.333 7.334C44 40.711 40.71 44 36.667 44c-4.044 0-7.334-3.289-7.334-7.333 0-.527.061-1.038.167-1.533L12.833 26.8c-1.345 1.539-3.299 2.533-5.5 2.533C3.29 29.333 0 26.045 0 22c0-4.044 3.29-7.333 7.333-7.333 2.201 0 4.155.994 5.5 2.534L29.5 8.866a7.302 7.302 0 0 1-.167-1.533c0-4.044 3.29-7.333 7.334-7.333C40.71 0 44 3.289 44 7.333c0 4.045-3.29 7.334-7.333 7.334zm0 25.666a3.67 3.67 0 0 0 3.666-3.666A3.67 3.67 0 0 0 36.667 33 3.671 3.671 0 0 0 33 36.667a3.67 3.67 0 0 0 3.667 3.666zm-29.334-22A3.67 3.67 0 0 0 3.667 22a3.67 3.67 0 0 0 3.666 3.667A3.671 3.671 0 0 0 11 22a3.672 3.672 0 0 0-3.667-3.667zM36.667 3.667A3.67 3.67 0 0 0 33 7.333 3.671 3.671 0 0 0 36.667 11a3.67 3.67 0 0 0 3.666-3.667 3.67 3.67 0 0 0-3.666-3.666z"/>
</svg>
