<svg xmlns="http://www.w3.org/2000/svg" width="74" height="66">
    <path fill="#6AD0F1" fill-rule="evenodd" d="M73.387 32.463c0 4.054-2.921 7.4-6.721 7.97-3.398 12.483-14.087 21.877-27.054 23.009-.429 1.062-1.448 1.81-2.639 1.81-1.576 0-2.855-1.31-2.855-2.926 0-1.617 1.279-2.928 2.855-2.928 1.148 0 2.132.699 2.585 1.701 14.48-1.339 25.872-13.801 25.96-28.966v-.509C65.343 15.639 52.609 2.69 36.974 2.69c-15.741 0-28.547 13.123-28.552 29.257v.017c0 2.794.392 5.497 1.11 8.059H7.941c-.109-.009-.215-.029-.323-.042h-.002c-.16-.019-.321-.033-.477-.061l-.004-.014C3.403 39.275.553 35.961.553 31.957c0-4.001 2.845-7.313 6.572-7.948C10.573 10.415 22.648.348 36.974.348c14.51 0 26.704 10.329 29.97 24.188 3.664.689 6.443 3.972 6.443 7.927zM36.974 7.021c13.436 0 24.327 11.164 24.327 24.936S50.41 56.893 36.974 56.893c-13.435 0-24.327-11.164-24.327-24.936S23.539 7.021 36.974 7.021zm-9.48 15.336c-1.576 0-2.855 1.31-2.855 2.927 0 1.616 1.279 2.927 2.855 2.927 1.577 0 2.856-1.311 2.856-2.927 0-1.617-1.279-2.927-2.856-2.927zm18.959 0c-1.577 0-2.855 1.31-2.855 2.927 0 1.616 1.278 2.927 2.855 2.927s2.855-1.311 2.855-2.927c0-1.617-1.278-2.927-2.855-2.927zM21.417 40.101c2.896 5.79 8.779 9.766 15.557 9.768 6.778-.002 12.661-3.978 15.556-9.768a1.185 1.185 0 0 0-.495-1.576 1.129 1.129 0 0 0-1.538.507c-2.521 5.039-7.634 8.497-13.523 8.495-5.889.002-11.003-3.456-13.523-8.495a1.129 1.129 0 0 0-1.538-.507c-.562.295-.783 1-.496 1.576z"/>
</svg>
