<svg xmlns="http://www.w3.org/2000/svg" width="34" height="34">
    <path fill="#6AD0F1" fill-rule="evenodd" d="M17 33.896C7.684 33.896.104 26.317.104 17S7.684.104 17 .104 33.896 7.683 33.896 17 26.316 33.896 17 33.896zM17 2.92C9.236 2.92 2.92 9.237 2.92 17S9.236 31.08 17 31.08 31.08 24.763 31.08 17 24.764 2.92 17 2.92zM24.04 17c0 .183-.037.366-.109.538a1.386 1.386 0 0 1-.305.459l-4.223 4.222a1.403 1.403 0 0 1-1.99 0 1.406 1.406 0 0 1 0-1.991l1.82-1.82h-7.865a1.408 1.408 0 0 1 0-2.816h7.865l-1.82-1.821a1.408 1.408 0 0 1 1.99-1.991l4.224 4.224c.13.13.233.286.304.458.072.172.109.355.109.538z"/>
</svg>
