<svg xmlns="http://www.w3.org/2000/svg" width="24" height="24">
    <path fill="#CD1C00" fill-rule="evenodd" d="M12 24C5.383 24 0 18.617 0 12S5.383 0 12 0s12 5.383 12 12-5.383 12-12 12zm0-22C6.486 2 2 6.486 2 12c0 5.513 4.486 10 10 10s10-4.487 10-10c0-5.514-4.486-10-10-10zm4.707 14.707a.997.997 0 0 1-1.414 0L12 13.414l-3.293 3.293a.997.997 0 0 1-1.414 0 .999.999 0 0 1 0-1.414L10.586 12 7.293 8.707a.999.999 0 1 1 1.414-1.414L12 10.586l3.293-3.293a.999.999 0 1 1 1.414 1.414L13.414 12l3.293 3.293a.999.999 0 0 1 0 1.414z"/>
</svg>
