<?xml version="1.0" encoding="UTF-8"?>
<svg width="1366px" height="250px" viewBox="0 0 1366 250" version="1.1" xmlns="http://www.w3.org/2000/svg" xmlns:xlink="http://www.w3.org/1999/xlink">
    <!-- Generator: Sketch 44.1 (41455) - http://www.bohemiancoding.com/sketch -->
    <title>Artboard</title>
    <desc>Created with Sketch.</desc>
    <defs></defs>
    <g id="Page-1" stroke="none" stroke-width="1" fill="none" fill-rule="evenodd">
        <g id="Artboard">
            <path d="M-254.613504,21.4510584 C-216.639973,3.15105031 -83.8691559,64.0599258 86.8751925,64.0599258 C257.619541,64.0599258 257.619541,21.4510584 428.363889,21.4510584 C599.108238,21.4510584 599.108238,64.0599258 769.852586,64.0599258 C940.596934,64.0599258 940.596934,21.4510584 1111.34128,21.4510584 C1282.08563,21.4510584 1282.08563,64.0599258 1452.82998,64.0599258 C1623.57433,64.0599258 1623.57433,21.4510584 1794.31868,21.4510584 C1965.06302,21.4510584 1965.06302,64.0599258 2135.80737,64.0599258 C2306.55172,64.0599258 2344.52525,-42.5331689 2477.29607,21.4510584 C2610.06689,85.4352857 2515.26918,210.328461 2477.29607,228.628397 C2439.32296,246.928333 2306.55172,186.0207 2135.80737,186.0207 C1965.06302,186.0207 1965.06302,228.628397 1794.31868,228.628397 C1623.57433,228.628397 1623.57433,186.0207 1452.82998,186.0207 C1282.08563,186.0207 1282.08563,228.628397 1111.34128,228.628397 C940.596934,228.628397 940.596934,186.0207 769.852586,186.0207 C599.108238,186.0207 599.108238,228.628397 428.363889,228.628397 C257.619541,228.628397 257.619541,186.0207 86.8751925,186.0207 C-83.8691559,186.0207 -121.842267,292.613282 -254.613504,228.628397 C-387.384741,164.643512 -292.587035,39.7510665 -254.613504,21.4510584 Z" id="Line-Copy-2" fill-opacity="0.5" fill="#20B4FF"></path>
            <path d="M-682.613504,21.4510584 C-644.639973,3.15105031 -511.869156,64.0599258 -341.124807,64.0599258 C-170.380459,64.0599258 -170.380459,21.4510584 0.363889286,21.4510584 C171.108238,21.4510584 171.108238,80.0599258 341.852586,80.0599258 C512.596934,80.0599258 512.596934,21.4510584 683.341283,21.4510584 C854.085631,21.4510584 854.085631,80.0599258 1024.82998,80.0599258 C1195.57433,80.0599258 1195.57433,21.4510584 1366.31868,21.4510584 C1537.06302,21.4510584 1537.06302,64.0599258 1707.80737,64.0599258 C1878.55172,64.0599258 1916.52525,-42.5331689 2049.29607,21.4510584 C2182.06689,85.4352857 2087.26918,210.328461 2049.29607,228.628397 C2011.32296,246.928333 1878.55172,186.0207 1707.80737,186.0207 C1537.06302,186.0207 1537.06302,228.628397 1366.31868,228.628397 C1195.57433,228.628397 1195.57433,202.0207 1024.82998,202.0207 C854.085631,202.0207 854.085631,228.628397 683.341283,228.628397 C512.596934,228.628397 512.596934,202.0207 341.852586,202.0207 C171.108238,202.0207 171.108238,228.628397 0.363889286,228.628397 C-170.380459,228.628397 -170.380459,186.0207 -341.124807,186.0207 C-511.869156,186.0207 -549.842267,292.613282 -682.613504,228.628397 C-815.384741,164.643512 -720.587035,39.7510665 -682.613504,21.4510584 Z" id="Line" fill-opacity="0.50317029" fill="#76DBFF"></path>
            <path d="M-415.613504,22.4510584 C-377.639973,4.15105031 -244.869156,89.0599258 -74.1248075,89.0599258 C96.6195409,89.0599258 96.6195409,22.4510584 267.363889,22.4510584 C438.108238,22.4510584 438.108238,89.0599258 608.852586,89.0599258 C779.596934,89.0599258 779.596934,22.4510584 950.341283,22.4510584 C1121.08563,22.4510584 1121.08563,89.0599258 1291.82998,89.0599258 C1462.57433,89.0599258 1462.57433,22.4510584 1633.31868,22.4510584 C1804.06302,22.4510584 1804.06302,65.0599258 1974.80737,65.0599258 C2145.55172,65.0599258 2183.52525,-41.5331689 2316.29607,22.4510584 C2449.06689,86.4352857 2354.26918,211.328461 2316.29607,229.628397 C2278.32296,247.928333 2145.55172,187.0207 1974.80737,187.0207 C1804.06302,187.0207 1804.06302,229.628397 1633.31868,229.628397 C1462.57433,229.628397 1462.57433,163.0207 1291.82998,163.0207 C1121.08563,163.0207 1121.08563,229.628397 950.341283,229.628397 C779.596934,229.628397 779.596934,163.0207 608.852586,163.0207 C438.108238,163.0207 438.108238,229.628397 267.363889,229.628397 C96.6195409,229.628397 96.6195409,163.0207 -74.1248075,163.0207 C-244.869156,163.0207 -282.842267,293.613282 -415.613504,229.628397 C-548.384741,165.643512 -453.587035,40.7510665 -415.613504,22.4510584 Z" id="Line-Copy" fill-opacity="0.3" fill="#4A90E2"></path>
        </g>
    </g>
</svg>