<svg xmlns="http://www.w3.org/2000/svg" width="98" height="98">
    <path fill="#FFF" fill-rule="evenodd" d="M85.683 71.945h-6.376L57.601 96.997a2.908 2.908 0 0 1-5.105-1.904V71.945h-40.18C5.745 71.945.4 66.601.4 60.032V11.914C.4 5.344 5.745.001 12.316.001h73.367c6.571 0 11.917 5.343 11.916 11.913v48.118c0 6.569-5.345 11.913-11.916 11.913zm6.101-11.913V11.914a6.107 6.107 0 0 0-6.101-6.099H12.316a6.107 6.107 0 0 0-6.101 6.099v48.119a6.108 6.108 0 0 0 6.101 6.099h43.087a2.907 2.907 0 0 1 2.908 2.907v18.259L75.78 67.135a2.906 2.906 0 0 1 2.336-1.003h7.567a6.108 6.108 0 0 0 6.101-6.099v-.001zM81.559 38.88H16.441a2.907 2.907 0 0 1 0-5.814h65.118a2.907 2.907 0 1 1 0 5.814zm0-13.89H16.441a2.907 2.907 0 1 1 0-5.814h65.118a2.908 2.908 0 1 1 0 5.814zM16.441 46.954h30.822a2.907 2.907 0 1 1 .001 5.815H16.441a2.907 2.907 0 1 1 0-5.815z"/>
</svg>
